<?xml version="1.0" standalone="no"?>
<!DOCTYPE svg PUBLIC "-//W3C//DTD SVG 20010904//EN"
 "http://www.w3.org/TR/2001/REC-SVG-20010904/DTD/svg10.dtd">
<svg version="1.0" xmlns="http://www.w3.org/2000/svg"
 width="1875.000000pt" height="1875.000000pt" viewBox="0 0 1875.000000 1875.000000"
 preserveAspectRatio="xMidYMid meet">

<g transform="translate(0.000000,1875.000000) scale(0.100000,-0.100000)"
fill="#000000" stroke="none">
<path d="M2797 16123 c10 -140 9 -1919 -1 -3423 -10 -1549 2 -2211 59 -3056
57 -850 149 -1552 290 -2229 141 -678 362 -1381 607 -1935 138 -312 359 -736
496 -950 19 -30 45 -71 57 -90 153 -247 432 -625 616 -835 14 -16 59 -68 100
-115 117 -135 432 -451 584 -587 272 -244 539 -458 771 -618 47 -33 92 -64 98
-70 40 -36 377 -250 616 -392 393 -234 966 -514 1491 -729 240 -97 686 -264
709 -264 6 0 15 12 21 28 l11 27 10 -27 c10 -30 23 -34 60 -19 13 5 75 28 138
51 260 94 567 215 760 299 1073 469 1918 987 2643 1619 402 350 765 743 1101
1189 73 98 315 452 329 483 4 8 21 35 37 60 16 25 41 65 55 90 14 25 48 83 75
130 95 165 299 578 388 785 340 791 580 1685 726 2705 22 154 37 265 76 600
35 291 81 929 99 1360 30 700 34 1070 25 2595 -10 1721 -10 2822 0 3178 l7
237 -6531 0 -6530 0 7 -97z m2883 -2313 l0 -680 1200 0 1200 0 0 680 0 680
1240 0 1240 0 0 -680 0 -680 1200 0 1200 0 0 680 0 680 1258 0 1257 0 -3 -412
c-2 -227 2 -843 8 -1368 20 -1513 15 -2357 -16 -3030 -8 -173 -43 -686 -54
-795 -34 -321 -43 -400 -65 -570 -115 -861 -297 -1594 -562 -2270 -92 -234
-161 -389 -285 -637 -250 -498 -508 -894 -885 -1359 -14 -17 -203 -235 -248
-286 -25 -28 -378 -383 -421 -423 -854 -798 -1989 -1497 -3354 -2065 -63 -26
-150 -63 -193 -81 l-77 -33 -53 24 c-28 12 -115 49 -192 81 -127 52 -581 251
-623 273 -9 5 -132 66 -272 135 -290 143 -510 258 -650 341 -30 18 -134 79
-230 136 -161 95 -528 332 -660 426 -633 452 -1127 901 -1581 1438 -95 112
-262 326 -309 395 -8 12 -29 41 -47 65 -26 34 -146 216 -268 405 -30 47 -125
211 -125 216 0 2 -12 23 -27 47 -26 42 -234 453 -271 537 -79 179 -101 233
-157 375 -56 143 -178 494 -203 585 -6 19 -26 89 -45 155 -48 163 -141 541
-172 700 -55 281 -65 335 -89 485 -90 567 -146 1163 -178 1920 -15 358 -17
1703 -4 3388 l9 1202 1254 0 1253 0 0 -680z"/>
<path d="M9174 12877 c-100 -38 -176 -102 -237 -199 l-17 -28 39 -19 c86 -44
145 -153 145 -262 -1 -58 -56 -219 -75 -219 -5 0 -9 22 -9 50 0 54 -19 81 -71
99 -36 13 -36 6 0 -66 54 -108 65 -154 58 -266 -4 -74 -16 -135 -41 -222 -47
-161 -72 -226 -140 -377 l-26 -58 521 0 521 0 -6 23 c-56 202 -78 445 -79 877
l-2 365 -33 68 c-49 99 -125 176 -214 218 -65 30 -84 34 -173 36 -85 3 -109 0
-161 -20z m214 -172 c41 -12 52 -20 52 -36 0 -20 -4 -21 -67 -15 -79 8 -155
-10 -213 -48 -38 -25 -80 -26 -80 -1 0 27 119 92 192 104 29 5 56 9 59 10 3 0
29 -6 57 -14z m-9 -106 c27 -77 1 -126 -77 -150 -38 -11 -46 -10 -95 15 -51
24 -55 29 -60 68 -7 49 -3 58 24 58 13 0 19 -7 19 -24 0 -25 35 -60 71 -71 23
-8 63 16 79 45 8 14 7 29 -4 55 -15 34 -14 35 9 35 17 0 26 -8 34 -31z"/>
<path d="M8804 12577 c-98 -47 -164 -163 -150 -265 3 -25 9 -48 12 -51 3 -3
16 9 29 26 58 73 198 100 297 56 25 -12 49 -19 52 -15 3 3 6 24 6 47 0 55 -49
152 -95 188 -50 39 -89 43 -151 14z"/>
<path d="M6570 11399 c-262 -58 -454 -230 -543 -489 -14 -41 -35 -116 -46
-167 -25 -112 -61 -479 -61 -625 l0 -108 175 0 c206 0 181 -26 189 200 17 482
94 697 286 799 186 100 423 40 535 -135 50 -78 68 -150 63 -254 -7 -144 -62
-225 -153 -225 -80 0 -119 63 -90 144 31 89 9 176 -57 222 -48 34 -145 39
-192 9 -91 -56 -142 -217 -112 -357 21 -98 49 -155 112 -223 121 -130 294
-180 469 -134 203 52 348 249 376 509 42 389 -196 728 -581 826 -117 30 -256
33 -370 8z"/>
<path d="M11759 11404 c-167 -30 -323 -114 -442 -238 -53 -55 -80 -94 -117
-171 -63 -131 -81 -207 -81 -349 -2 -459 365 -734 731 -550 159 80 262 282
232 456 -28 162 -94 240 -203 240 -124 0 -206 -115 -165 -232 20 -58 20 -85
-1 -121 -24 -41 -79 -57 -130 -38 -96 37 -141 216 -93 373 59 191 261 313 458
277 99 -18 146 -43 218 -115 133 -133 170 -284 200 -819 l6 -107 176 2 177 3
-3 115 c-4 146 -28 430 -47 540 -71 421 -271 661 -612 730 -115 23 -195 24
-304 4z"/>
<path d="M8659 11221 c-38 -38 -40 -91 -4 -126 l24 -25 263 -1 c145 -1 434 -1
643 0 l380 2 23 25 c25 28 30 88 9 115 -29 38 -39 39 -682 39 l-627 0 -29 -29z"/>
<path d="M8665 11000 c-5 -8 140 -160 261 -272 l41 -38 157 157 c86 86 156
158 156 160 0 9 -610 2 -615 -7z"/>
<path d="M9370 11002 c0 -4 69 -76 154 -161 l154 -154 150 148 c88 87 148 154
145 162 -4 10 -66 13 -304 13 -164 0 -299 -3 -299 -8z"/>
<path d="M6638 10977 c-133 -57 -202 -150 -254 -347 -16 -61 -39 -286 -49
-487 l-7 -133 252 0 253 0 -63 33 c-166 85 -270 259 -270 452 0 210 109 356
265 356 94 0 167 -45 209 -131 29 -58 32 -115 10 -185 -18 -56 -18 -57 1 -71
26 -19 48 -18 73 5 37 31 52 83 52 178 0 76 -4 96 -29 148 -59 124 -167 196
-306 202 -67 3 -89 0 -137 -20z"/>
<path d="M11757 10978 c-75 -26 -157 -100 -194 -176 -25 -51 -28 -68 -28 -157
0 -76 4 -109 18 -136 24 -48 58 -66 93 -50 28 13 28 16 4 111 -14 55 -5 113
26 167 43 75 111 113 202 113 140 0 235 -108 262 -299 29 -205 -92 -428 -281
-515 l-54 -26 254 0 254 0 -7 153 c-18 412 -60 597 -162 715 -95 110 -246 149
-387 100z"/>
<path d="M9167 10803 l-156 -157 53 -55 c112 -118 249 -251 257 -251 5 0 77
67 160 149 128 128 149 153 140 168 -6 10 -75 82 -154 161 l-144 143 -156
-158z"/>
<path d="M9862 10787 l-142 -142 158 -158 157 -157 64 64 c61 62 63 65 57 103
-9 48 -97 311 -128 380 l-23 53 -143 -143z"/>
<path d="M8612 10868 c-17 -44 -105 -318 -126 -393 -5 -16 9 -35 57 -83 l62
-62 158 157 157 157 -137 138 c-76 76 -141 138 -144 138 -4 0 -16 -24 -27 -52z"/>
<path d="M7581 10588 c-2 -75 -33 -202 -65 -268 l-24 -49 62 -41 c170 -115
430 -210 655 -239 120 -16 121 -16 121 17 1 15 14 92 30 172 15 80 27 146 25
148 -1 2 -43 7 -92 12 -161 17 -287 53 -435 125 -91 45 -196 115 -237 159 -14
14 -28 26 -31 26 -4 0 -8 -28 -9 -62z"/>
<path d="M11024 10622 c-80 -74 -233 -164 -360 -211 -97 -35 -299 -77 -393
-80 -9 -1 -12 -10 -8 -33 29 -177 50 -295 53 -306 10 -35 380 41 534 110 95
43 183 90 240 128 l59 40 -25 56 c-32 73 -64 205 -64 267 0 51 -6 56 -36 29z"/>
<path d="M8807 10443 l-157 -158 152 -152 c84 -84 156 -153 160 -153 4 0 77
69 162 153 l155 153 -157 157 -158 158 -157 -158z"/>
<path d="M9520 10445 l-154 -155 39 -41 c122 -124 268 -269 274 -269 3 0 76
69 160 154 l154 154 -144 147 c-79 80 -151 150 -160 155 -12 7 -49 -25 -169
-145z"/>
<path d="M8450 10334 c-6 -33 -18 -88 -26 -123 -8 -35 -13 -65 -11 -67 2 -2
37 30 77 71 l75 75 -52 51 -51 52 -12 -59z"/>
<path d="M10125 10340 l-49 -50 79 -80 c43 -44 80 -78 81 -77 4 4 -50 245 -57
251 -3 3 -27 -17 -54 -44z"/>
<path d="M8501 10138 c-57 -57 -107 -115 -111 -130 -5 -15 -11 -55 -15 -90
l-6 -63 120 -119 120 -119 157 157 157 158 -154 154 c-85 85 -156 154 -160
154 -3 0 -52 -46 -108 -102z"/>
<path d="M9160 10085 l-155 -155 158 -157 157 -158 158 158 158 158 -153 152
c-85 84 -157 153 -161 155 -4 1 -77 -68 -162 -153z"/>
<path d="M9872 10087 l-153 -153 157 -158 157 -158 122 122 122 121 -9 62 c-4
34 -10 73 -13 86 -6 25 -202 231 -220 231 -6 0 -79 -69 -163 -153z"/>
<path d="M7435 10184 c-14 -19 -36 -44 -48 -55 l-22 -20 25 -20 c45 -35 174
-108 270 -152 161 -75 332 -124 531 -152 57 -8 104 -13 105 -12 5 4 22 142 18
146 -2 2 -38 7 -81 11 -251 26 -523 124 -735 265 l-36 24 -27 -35z"/>
<path d="M11120 10179 c-81 -55 -221 -122 -339 -163 -112 -39 -323 -86 -387
-86 -63 0 -67 -8 -59 -89 l7 -71 31 5 c225 30 386 68 524 124 82 32 242 115
314 163 l67 43 -52 56 -51 56 -55 -38z"/>
<path d="M7264 10039 l-49 -29 89 0 c88 0 89 0 70 19 -44 40 -57 42 -110 10z"/>
<path d="M11286 10041 l-40 -26 47 -3 c26 -2 68 -2 93 0 l46 3 -53 26 -54 26
-39 -26z"/>
<path d="M5826 9920 c-68 -60 -67 -134 3 -193 l33 -27 790 0 c777 0 791 0 823
20 35 22 55 63 55 114 -1 40 -19 73 -56 97 -28 18 -55 19 -821 19 l-792 0 -35
-30z"/>
<path d="M11184 9940 c-11 -4 -33 -23 -48 -41 -25 -29 -28 -39 -23 -82 3 -38
11 -56 36 -80 l31 -32 798 -3 799 -2 33 22 c75 51 76 153 2 203 l-37 25 -785
-1 c-432 0 -794 -4 -806 -9z"/>
<path d="M10960 9864 c-58 -25 -129 -52 -158 -61 l-52 -17 5 -60 c2 -34 7
-173 10 -311 9 -402 21 -580 45 -665 44 -155 130 -274 236 -326 45 -22 64 -26
114 -22 33 2 64 9 70 14 8 8 -12 712 -26 861 -5 58 -7 62 -35 68 -44 10 -107
87 -115 142 -8 57 10 116 49 154 l29 29 -31 30 c-38 38 -58 118 -43 173 6 20
10 37 9 36 -1 0 -49 -21 -107 -45z"/>
<path d="M7588 9851 c5 -58 -10 -110 -45 -151 l-24 -29 32 -41 c27 -33 34 -51
37 -100 4 -50 0 -66 -21 -103 -28 -47 -58 -72 -101 -83 -22 -5 -26 -12 -27
-43 0 -20 -8 -224 -17 -454 -9 -231 -14 -424 -10 -430 3 -6 33 -13 66 -15 113
-8 219 64 295 201 75 134 90 240 102 702 3 127 8 287 11 356 l5 125 -83 29
c-46 16 -112 41 -146 57 -35 15 -67 28 -71 28 -5 0 -6 -22 -3 -49z"/>
<path d="M8807 9732 l-157 -157 158 -158 157 -157 158 158 157 157 -158 158
-157 157 -158 -158z"/>
<path d="M9522 9737 c-83 -84 -152 -157 -152 -162 0 -6 69 -79 153 -163 l152
-152 158 158 157 157 -158 158 -157 157 -153 -153z"/>
<path d="M10178 9682 c-54 -53 -98 -99 -98 -102 0 -10 222 -231 227 -227 2 3
-1 92 -8 199 -7 106 -13 201 -13 211 0 9 -3 17 -6 17 -3 0 -49 -44 -102 -98z"/>
<path d="M7946 9628 c-32 -723 -36 -887 -21 -972 34 -192 127 -344 241 -392
62 -26 204 -13 204 19 0 5 -7 51 -15 101 -61 382 -80 650 -72 1044 l6 292 -27
0 c-28 0 -251 35 -288 46 -21 6 -22 3 -28 -138z"/>
<path d="M8355 9713 c-8 -60 -23 -355 -18 -362 3 -5 223 217 223 227 0 9 -182
192 -192 192 -3 0 -9 -26 -13 -57z"/>
<path d="M10550 9744 c-69 -12 -142 -23 -164 -23 l-38 -1 7 -107 c11 -156 8
-613 -5 -793 -9 -141 -22 -262 -50 -470 -9 -66 -9 -76 7 -87 27 -21 130 -16
179 8 96 46 184 175 220 319 23 92 24 188 6 720 -13 401 -17 461 -30 459 -4
-1 -63 -12 -132 -25z"/>
<path d="M5833 9619 c-20 -12 -38 -37 -49 -64 -16 -42 -16 -45 5 -89 40 -81
-14 -77 881 -74 l792 3 34 37 c27 30 34 46 34 78 0 23 -7 54 -15 70 -32 62 3
60 -862 60 -776 0 -788 -1 -820 -21z"/>
<path d="M11154 9607 c-29 -26 -37 -42 -40 -77 -6 -54 9 -86 55 -117 l34 -23
785 0 c769 0 785 0 817 20 34 21 65 73 65 107 0 27 -25 76 -51 99 -20 18 -50
19 -825 22 l-804 2 -36 -33z"/>
<path d="M8471 9396 c-74 -74 -136 -143 -137 -153 -8 -49 21 -90 147 -213
l129 -125 158 158 157 157 -155 155 c-85 85 -157 155 -160 155 -3 0 -66 -61
-139 -134z"/>
<path d="M9160 9375 l-155 -155 158 -158 157 -157 157 157 158 158 -155 155
c-85 85 -157 155 -160 155 -3 0 -75 -70 -160 -155z"/>
<path d="M9870 9375 l-154 -154 154 -156 c85 -85 157 -155 160 -155 3 0 68 60
143 134 185 180 185 165 2 347 -75 74 -139 135 -143 136 -4 2 -77 -67 -162
-152z"/>
<path d="M5890 9263 c0 -38 -4 -165 -10 -283 -5 -118 -12 -309 -15 -425 -3
-115 -14 -448 -25 -740 -25 -660 -26 -715 -20 -715 3 0 87 83 188 184 l182
184 0 54 c0 87 29 952 45 1348 8 201 15 386 15 413 l0 47 -180 0 -180 0 0 -67z"/>
<path d="M6456 9314 c-3 -9 -6 -77 -6 -151 0 -75 -7 -309 -16 -521 -8 -211
-13 -387 -9 -390 3 -3 86 75 184 173 l180 178 5 71 c3 39 8 203 12 364 l6 292
-175 0 c-150 0 -176 -2 -181 -16z"/>
<path d="M7017 9168 c-4 -90 -11 -323 -17 -518 -6 -195 -15 -445 -19 -555 -5
-110 -8 -201 -7 -202 1 -1 84 78 183 176 l181 179 6 63 c5 60 37 931 36 992
l0 27 -178 0 -179 0 -6 -162z"/>
<path d="M11260 9318 c0 -7 9 -231 20 -498 11 -267 20 -503 20 -526 0 -39 6
-46 182 -222 100 -100 183 -180 185 -178 2 2 -1 116 -6 252 -6 137 -15 404
-21 594 -5 190 -13 400 -16 468 l-7 122 -178 0 c-137 0 -179 -3 -179 -12z"/>
<path d="M11835 9113 c3 -120 8 -283 11 -362 l6 -144 182 -181 181 -181 3 39
c2 21 -4 215 -12 430 -9 215 -16 435 -16 488 0 53 -3 103 -6 112 -5 14 -31 16
-181 16 l-174 0 6 -217z"/>
<path d="M12394 9208 c10 -183 34 -840 47 -1283 6 -214 14 -407 18 -427 5 -32
33 -65 185 -218 99 -99 180 -180 181 -180 3 0 -2 149 -25 800 -11 305 -24 699
-30 875 -6 176 -13 373 -17 438 l-6 117 -180 0 -179 0 6 -122z"/>
<path d="M8807 9023 l-157 -158 158 -158 157 -157 157 157 157 158 -157 158
-157 157 -158 -157z"/>
<path d="M9522 9026 c-83 -85 -152 -158 -152 -163 0 -4 69 -77 154 -162 l154
-154 157 158 157 158 -159 159 -158 158 -153 -154z"/>
<path d="M10185 8973 l-109 -114 97 -96 c53 -54 99 -95 102 -92 11 11 36 420
25 418 -3 -1 -54 -53 -115 -116z"/>
<path d="M8340 9058 c1 -40 19 -281 26 -336 l6 -52 94 92 c52 51 93 95 92 99
-4 10 -193 205 -207 214 -7 4 -11 -3 -11 -17z"/>
<path d="M8493 8708 l-111 -113 8 -55 c4 -30 11 -77 15 -104 6 -45 14 -56 104
-147 l97 -99 157 158 157 158 -156 157 c-85 86 -156 157 -157 157 -1 0 -53
-51 -114 -112z"/>
<path d="M9160 8664 l-152 -156 153 -154 c85 -85 157 -154 161 -154 8 0 308
298 308 306 0 9 -302 314 -310 314 -4 0 -76 -70 -160 -156z"/>
<path d="M9877 8662 l-157 -157 158 -158 158 -157 105 107 c113 114 110 110
124 233 l6 55 -118 117 -118 118 -158 -158z"/>
<path d="M6596 8331 c-103 -103 -186 -192 -185 -197 4 -13 -9 -445 -27 -893
-8 -211 -13 -385 -11 -387 1 -2 86 80 187 181 l185 185 7 277 c4 153 14 444
22 647 9 204 14 371 13 373 -2 1 -87 -82 -191 -186z"/>
<path d="M11856 8473 c6 -81 25 -620 34 -946 l8 -308 187 -187 187 -187 -7
200 c-38 1060 -40 1100 -56 1120 -8 11 -92 96 -185 188 l-171 169 3 -49z"/>
<path d="M8803 8307 l-157 -155 156 -156 c85 -86 158 -156 161 -156 4 0 76 70
161 155 l154 155 -138 137 c-75 76 -147 146 -158 157 -21 19 -22 18 -179 -137z"/>
<path d="M9521 8306 l-155 -155 40 -43 c21 -24 92 -95 157 -158 l117 -114 158
157 157 157 -155 155 c-85 85 -157 155 -160 155 -3 0 -75 -69 -159 -154z"/>
<path d="M10150 8225 l-74 -75 54 -55 c29 -30 55 -53 57 -52 6 7 49 257 43
257 -3 0 -39 -34 -80 -75z"/>
<path d="M8436 8250 c3 -19 13 -70 21 -113 l16 -79 46 46 46 46 -68 68 -67 67
6 -35z"/>
<path d="M7155 7980 l-180 -180 -6 -62 c-4 -35 -9 -171 -13 -303 -3 -132 -9
-298 -12 -370 l-6 -130 149 150 c82 83 165 168 185 190 l36 41 17 395 c9 217
15 407 13 422 -3 26 -15 16 -183 -153z"/>
<path d="M11300 8144 c0 -10 7 -172 15 -359 8 -187 15 -370 15 -407 l0 -66
185 -186 c145 -147 185 -182 185 -164 1 110 -24 807 -29 820 -5 14 -235 252
-340 352 -27 26 -31 27 -31 10z"/>
<path d="M8545 8049 l-59 -61 28 -113 28 -113 63 6 c75 6 126 -18 163 -74 l22
-34 43 43 c23 23 52 54 64 68 l22 25 -157 157 -158 158 -59 -62z"/>
<path d="M9877 7952 l-157 -157 66 -67 66 -68 22 32 c12 18 37 43 56 56 30 20
44 23 100 19 36 -2 72 -7 81 -11 13 -6 19 10 37 91 12 54 22 105 22 113 0 9
-31 46 -68 82 l-68 67 -157 -157z"/>
<path d="M9161 7946 l-155 -155 157 -158 157 -158 155 155 c85 85 155 157 155
160 0 8 -301 310 -309 310 -3 0 -76 -70 -160 -154z"/>
<path d="M8887 7673 c-57 -56 -76 -81 -70 -92 4 -9 8 -85 8 -169 l2 -153 53
-54 c84 -85 87 -84 258 88 l143 143 -156 154 c-86 85 -157 156 -158 157 -2 1
-38 -32 -80 -74z"/>
<path d="M9521 7596 c-141 -141 -153 -156 -141 -173 8 -10 72 -75 142 -145
154 -155 157 -155 242 -69 l57 58 -6 94 c-5 56 -3 123 4 166 l11 71 -76 76
c-42 42 -77 76 -78 76 -1 0 -71 -69 -155 -154z"/>
<path d="M8529 7682 c-156 -101 -323 -401 -362 -652 -19 -119 -25 -181 -37
-399 -19 -323 -68 -476 -201 -616 -52 -54 -88 -82 -139 -106 -67 -32 -68 -34
-52 -53 62 -70 218 -60 291 18 14 14 28 26 31 26 4 0 10 -31 12 -70 9 -117 87
-236 183 -276 52 -21 54 -19 34 41 -58 176 -49 446 23 665 21 66 101 234 142
299 56 89 176 302 203 361 72 154 113 335 113 494 0 129 -19 208 -62 260 -27
33 -34 36 -82 36 -40 0 -62 -6 -97 -28z"/>
<path d="M9948 7690 c-103 -80 -103 -398 -1 -675 27 -74 124 -261 200 -385
130 -214 196 -371 228 -545 23 -124 16 -369 -13 -470 -11 -38 -19 -71 -17 -73
10 -10 95 40 131 77 61 62 88 123 92 209 2 39 7 72 11 72 4 0 20 -13 36 -30
64 -67 194 -80 274 -27 l41 28 -81 41 c-100 52 -179 134 -239 250 -58 111 -86
254 -100 508 -18 316 -41 451 -107 609 -73 179 -169 316 -276 395 -41 31 -56
36 -101 36 -38 0 -61 -6 -78 -20z"/>
<path d="M9195 7270 l-120 -120 245 0 245 0 -120 120 c-66 66 -122 120 -125
120 -3 0 -59 -54 -125 -120z"/>
<path d="M5993 7187 l-181 -182 -16 -435 c-9 -239 -21 -583 -27 -765 -19 -640
-23 -715 -47 -762 -24 -46 -62 -77 -119 -97 -26 -9 -38 -19 -38 -32 0 -44 159
-20 274 41 112 60 204 166 247 285 25 71 35 200 17 229 -20 32 -21 86 -1 108
14 15 19 98 37 583 35 979 43 1202 39 1206 -2 2 -85 -79 -185 -179z"/>
<path d="M12465 7270 c3 -58 10 -249 15 -425 21 -756 43 -1250 55 -1265 24
-28 27 -59 9 -95 -13 -28 -16 -53 -11 -113 13 -191 136 -365 311 -439 76 -32
208 -52 230 -34 22 19 9 38 -30 46 -42 7 -106 62 -128 110 -17 36 -18 52 -61
1275 -8 245 -18 497 -21 561 l-6 117 -185 183 -184 184 6 -105z"/>
<path d="M11344 7002 c4 -119 12 -237 18 -262 27 -114 127 -258 222 -317 69
-44 164 -74 240 -76 67 -2 71 -1 74 21 3 17 -2 22 -18 22 -37 0 -99 39 -126
79 -30 46 -42 121 -45 272 l-1 107 -185 185 -186 185 7 -216z"/>
<path d="M7117 7032 l-179 -179 -7 -159 c-5 -87 -13 -171 -19 -185 -17 -42
-58 -84 -101 -104 -31 -14 -41 -24 -41 -42 0 -19 5 -23 33 -23 127 0 312 98
383 202 16 24 32 46 36 49 5 3 21 42 38 87 28 77 30 91 37 307 4 124 6 225 3
225 -3 0 -85 -80 -183 -178z"/>
<path d="M8798 7160 c-3 -16 -3 -30 -2 -30 2 0 15 5 30 10 26 10 26 11 9 30
-25 27 -32 25 -37 -10z"/>
<path d="M9805 7170 c-17 -19 -17 -20 10 -30 34 -13 35 -12 28 23 -6 32 -14
34 -38 7z"/>
<path d="M6545 6940 l-180 -180 -3 -133 c-1 -72 -9 -312 -18 -532 -14 -368
-17 -403 -36 -444 -22 -47 -94 -101 -134 -101 -27 0 -38 -24 -18 -41 19 -15
120 -6 189 17 120 41 245 148 297 256 52 105 58 149 68 518 6 190 15 442 20
560 12 260 12 260 2 260 -4 0 -88 -81 -187 -180z"/>
<path d="M11906 7058 c2 -35 9 -189 14 -343 8 -215 14 -285 25 -302 19 -28 19
-74 1 -99 -12 -15 -14 -50 -10 -184 3 -91 12 -192 20 -225 51 -213 222 -370
432 -398 44 -5 87 -7 96 -4 31 12 13 39 -35 53 -56 17 -113 75 -128 131 -10
40 -27 419 -37 823 l-6 245 -182 183 c-99 100 -184 182 -187 182 -4 0 -5 -28
-3 -62z"/>
<path d="M8828 7074 c-35 -18 -58 -62 -58 -108 0 -75 117 -157 271 -191 41 -9
143 -19 229 -22 310 -11 533 55 591 175 19 39 20 46 7 80 -8 20 -29 47 -47 59
l-34 23 -466 0 c-393 -1 -470 -3 -493 -16z"/>
<path d="M8781 6638 c-24 -84 -67 -238 -97 -343 -29 -104 -62 -221 -74 -260
-63 -217 -117 -406 -150 -530 -21 -77 -52 -187 -69 -244 -17 -57 -28 -107 -26
-111 2 -4 39 -15 82 -24 43 -10 119 -27 168 -38 50 -11 105 -24 124 -29 19 -5
37 -7 39 -4 2 2 17 93 32 202 16 109 38 266 50 348 12 83 28 195 36 250 9 55
19 132 24 170 7 65 85 606 95 667 4 23 1 28 -32 38 -21 7 -64 23 -95 36 -32
13 -59 24 -61 24 -2 0 -23 -69 -46 -152z"/>
<path d="M9790 6780 c-8 -5 -50 -21 -92 -36 -69 -23 -77 -28 -74 -47 4 -21 15
-93 51 -352 9 -60 31 -216 50 -345 18 -129 38 -271 44 -315 38 -283 91 -618
98 -625 7 -7 65 5 308 61 50 12 94 25 99 29 4 5 -1 41 -13 82 -11 40 -37 128
-56 194 -19 67 -50 177 -69 245 -19 68 -57 203 -85 299 -74 258 -207 729 -220
778 -12 44 -17 48 -41 32z"/>
<path d="M6253 6713 c-10 -4 -9 -9 3 -20 17 -18 30 -11 17 10 -4 8 -14 12 -20
10z"/>
<path d="M12367 6705 c-4 -8 -3 -16 1 -19 13 -8 35 11 28 23 -10 15 -23 14
-29 -4z"/>
<path d="M9075 6699 c-2 -8 -14 -81 -25 -164 -12 -82 -30 -211 -41 -285 -77
-528 -169 -1195 -166 -1203 2 -8 401 -104 440 -107 4 0 7 393 7 874 l0 873
-82 7 c-46 4 -93 10 -105 13 -14 3 -25 0 -28 -8z"/>
<path d="M9438 6697 l-88 -10 0 -874 c0 -480 3 -873 7 -873 4 0 34 7 67 14 34
8 129 29 211 47 83 18 154 36 159 40 7 6 -19 212 -74 584 -10 72 -49 345 -86
608 -65 455 -69 477 -88 475 -12 0 -60 -6 -108 -11z"/>
<path d="M7973 5768 c-31 -10 -33 -16 -93 -197 -100 -304 -149 -390 -243 -432
l-53 -23 45 -31 c51 -35 82 -88 85 -145 2 -58 13 -49 18 15 7 83 60 141 150
166 37 10 39 12 31 37 -4 15 -8 61 -8 102 0 69 5 86 54 200 29 69 62 145 72
169 18 42 18 46 2 97 -9 30 -19 54 -22 53 -3 -1 -20 -6 -38 -11z"/>
<path d="M10620 5760 c0 -12 -7 -34 -15 -50 -14 -28 -13 -35 55 -195 39 -91
75 -188 81 -215 10 -47 4 -105 -15 -151 -6 -13 3 -19 37 -29 85 -23 141 -88
157 -179 l8 -46 1 46 c1 57 44 127 93 153 l36 20 -46 22 c-110 52 -129 87
-247 433 -59 175 -63 184 -95 197 -43 19 -50 18 -50 -6z"/>
<path d="M7230 5081 c-24 -7 -24 -8 -4 -14 11 -4 30 -17 43 -28 l22 -21 34 36
34 36 -52 -1 c-29 -1 -63 -4 -77 -8z"/>
<path d="M11316 5054 l34 -36 31 26 c17 14 36 26 42 27 29 2 -43 17 -89 18
l-51 1 33 -36z"/>
<path d="M7425 5058 c-37 -20 -75 -61 -85 -93 -9 -26 -7 -41 6 -73 18 -46 39
-57 78 -42 39 14 111 12 151 -4 34 -14 35 -14 55 14 48 67 30 142 -45 185 -45
27 -123 33 -160 13z"/>
<path d="M7875 5058 c-40 -22 -85 -73 -91 -102 -6 -34 8 -81 32 -108 14 -15
19 -15 49 -2 44 18 118 18 154 -1 26 -13 30 -13 48 8 34 37 45 66 38 100 -8
36 -46 82 -87 103 -32 17 -115 18 -143 2z"/>
<path d="M10615 5051 c-82 -50 -101 -136 -44 -197 20 -22 24 -22 50 -9 37 19
122 19 159 0 29 -15 30 -15 56 25 47 70 18 151 -65 186 -47 20 -120 18 -156
-5z"/>
<path d="M11064 5051 c-75 -46 -99 -131 -51 -186 22 -26 22 -26 76 -12 52 13
68 12 142 -8 56 -14 96 72 64 139 -36 76 -159 111 -231 67z"/>
<path d="M7058 5030 c-100 -30 -137 -105 -83 -169 26 -30 26 -30 67 -15 50 17
91 17 141 0 36 -13 38 -13 62 16 60 71 2 156 -115 171 -25 3 -57 2 -72 -3z"/>
<path d="M11478 5026 c-55 -15 -74 -29 -94 -69 -19 -35 -11 -77 20 -106 21
-20 25 -21 59 -6 47 19 95 19 143 -1 38 -16 39 -16 61 11 30 35 31 97 2 126
-25 25 -97 59 -124 58 -11 0 -41 -6 -67 -13z"/>
<path d="M7453 4798 c-39 -19 -29 -102 20 -175 12 -18 25 -33 28 -33 4 0 9 28
13 63 4 34 12 79 17 101 6 21 9 39 7 41 -11 10 -67 12 -85 3z"/>
<path d="M7903 4798 c-13 -6 -23 -17 -23 -23 0 -19 50 -169 60 -178 4 -5 17
15 28 45 35 93 46 138 36 148 -15 15 -78 20 -101 8z"/>
<path d="M10665 4803 c-11 -3 -24 -8 -28 -13 -9 -8 15 -101 44 -164 l18 -40
19 44 c27 64 46 150 35 161 -11 11 -63 19 -88 12z"/>
<path d="M7058 4793 c-12 -3 -18 -14 -18 -35 0 -37 40 -126 69 -152 21 -19 21
-19 21 25 0 24 7 69 15 99 8 30 15 58 15 63 0 7 -73 8 -102 0z"/>
<path d="M11105 4783 c11 -31 25 -114 25 -154 0 -22 4 -39 10 -39 19 0 60 77
72 134 15 68 8 76 -66 76 -42 0 -47 -2 -41 -17z"/>
<path d="M11488 4795 c-3 -3 1 -29 8 -58 7 -28 15 -73 19 -100 l6 -47 23 27
c52 64 75 164 40 177 -19 7 -89 8 -96 1z"/>
</g>
</svg>
